<mxfile host="Electron" agent="Mozilla/5.0 (Windows NT 10.0; Win64; x64) AppleWebKit/537.36 (KHTML, like Gecko) draw.io/26.1.1 Chrome/132.0.6834.210 Electron/34.3.3 Safari/537.36" version="26.1.1">
  <diagram name="Pagina-1" id="cEp7uzm5KkJ27u17-yko">
    <mxGraphModel dx="1034" dy="511" grid="1" gridSize="10" guides="1" tooltips="1" connect="1" arrows="1" fold="1" page="1" pageScale="1" pageWidth="827" pageHeight="1169" math="0" shadow="0">
      <root>
        <mxCell id="0" />
        <mxCell id="1" parent="0" />
        <mxCell id="5UZozF7DYp7onBdiY1KP-1" value="Amministratore" style="shape=umlActor;verticalLabelPosition=bottom;verticalAlign=top;html=1;" vertex="1" parent="1">
          <mxGeometry x="200" y="140" width="30" height="60" as="geometry" />
        </mxCell>
        <mxCell id="5UZozF7DYp7onBdiY1KP-3" value="Team" style="shape=umlActor;verticalLabelPosition=bottom;verticalAlign=top;html=1;" vertex="1" parent="1">
          <mxGeometry x="440" y="140" width="30" height="60" as="geometry" />
        </mxCell>
        <mxCell id="5UZozF7DYp7onBdiY1KP-6" value="Visualizza Report Mensile" style="ellipse;whiteSpace=wrap;html=1;" vertex="1" parent="1">
          <mxGeometry x="137.5" y="340" width="155" height="80" as="geometry" />
        </mxCell>
        <mxCell id="5UZozF7DYp7onBdiY1KP-7" value="Svolgi AttivitÃ " style="ellipse;whiteSpace=wrap;html=1;" vertex="1" parent="1">
          <mxGeometry x="385" y="345" width="140" height="70" as="geometry" />
        </mxCell>
        <mxCell id="5UZozF7DYp7onBdiY1KP-8" value="" style="endArrow=none;html=1;edgeStyle=orthogonalEdgeStyle;rounded=0;" edge="1" parent="1" source="5UZozF7DYp7onBdiY1KP-7">
          <mxGeometry relative="1" as="geometry">
            <mxPoint x="330" y="270" as="sourcePoint" />
            <mxPoint x="455" y="230" as="targetPoint" />
          </mxGeometry>
        </mxCell>
        <mxCell id="5UZozF7DYp7onBdiY1KP-11" value="" style="endArrow=none;html=1;edgeStyle=orthogonalEdgeStyle;rounded=0;" edge="1" parent="1" source="5UZozF7DYp7onBdiY1KP-6">
          <mxGeometry relative="1" as="geometry">
            <mxPoint x="465" y="355" as="sourcePoint" />
            <mxPoint x="215" y="230" as="targetPoint" />
          </mxGeometry>
        </mxCell>
      </root>
    </mxGraphModel>
  </diagram>
</mxfile>
